# xmcd
#
# Track frame offsets: 
#        150
#        12609
#        25995
#        36369
#        48027
#        58810
#        70649
#        82874
#        94670
#        106284
#        115501
#        126564
#        136380
#        148476
#        161783
#        176270
#        187249
#        197354
#        208143
#        220780
#
# Disc length: 3162 seconds
#
# Revision: 0
# Processed by: cddbd v1.5.2PL0 Copyright (c) Steve Scherf et al.
# Submitted via: ExactAudioCopy v1.0b3
#
DISCID=250c5814
DTITLE=Various Artist - Country and Western Greatest Love Songs - 200 O
DTITLE=riginal Recordings [CD 8,10)
DYEAR=1960
DGENRE=Country
TTITLE0=Don Gibson - Just On Time
TTITLE1=Bobby Helms - My Special Angel
TTITLE2=Hank Snow - Spanish Fireball
TTITLE3=Patsy Cline - Walkin' After Midnight
TTITLE4=Marty Robbins - She Was Only Seventeen
TTITLE5=Porter Wagoner - I Thought I Heard You Calling My Name
TTITLE6=Jim Reeves - Am I Loosing You
TTITLE7=Hank Williams - You Win Again
TTITLE8=Ray Price - My Shoes Keep Walkin' Back To You
TTITLE9=Sonny James - Listen To My Heart
TTITLE10=Faron Young - I Miss You Already
TTITLE11=Webb Pierce - Bye Bye Love
TTITLE12=Johnny Cash - You're The Nearest Thing To Heaven
TTITLE13=Jerry Lee Lewis - You Win Again
TTITLE14=Red Foley - Midnight
TTITLE15=Jim Reeves - I'm Hurtin' Inside
TTITLE16=Ned Miller - From A Jack To A King
TTITLE17=Ferlin Husky - Gone
TTITLE18=Hank Snow - Stolen Moments
TTITLE19=Everly Brothers - I'm Here To Get My Baby Out Of Jail
EXTD=
EXTT0=
EXTT1=
EXTT2=
EXTT3=
EXTT4=
EXTT5=
EXTT6=
EXTT7=
EXTT8=
EXTT9=
EXTT10=
EXTT11=
EXTT12=
EXTT13=
EXTT14=
EXTT15=
EXTT16=
EXTT17=
EXTT18=
EXTT19=
PLAYORDER=
